<svg 
 xmlns="http://www.w3.org/2000/svg"
 xmlns:xlink="http://www.w3.org/1999/xlink"
 width="739px" height="165px">
<defs>
<linearGradient id="PSgrad_0" x1="0%" x2="78.801%" y1="61.566%" y2="0%">
  <stop offset="0%" stop-color="rgb(139,72,253)" stop-opacity="1" />
  <stop offset="30%" stop-color="rgb(111,74,251)" stop-opacity="1" />
  <stop offset="62%" stop-color="rgb(93,79,253)" stop-opacity="1" />
  <stop offset="99%" stop-color="rgb(67,90,254)" stop-opacity="1" />
</linearGradient>

</defs>
<path fill-rule="evenodd"  fill="rgb(70, 81, 252)"
 d="M116.665,45.258 L15.894,45.258 C7.127,45.258 0.020,38.150 0.020,29.383 C0.020,20.616 7.127,13.509 15.894,13.509 L116.665,13.509 C125.432,13.509 132.540,20.616 132.540,29.383 C132.540,38.150 125.432,45.258 116.665,45.258 Z"/>
<path fill-rule="evenodd"  fill="url(#PSgrad_0)"
 d="M127.617,95.089 L15.894,95.089 C7.127,95.089 0.020,87.982 0.020,79.215 C0.020,70.448 7.127,63.340 15.894,63.340 L127.617,63.340 C136.385,63.340 143.492,70.448 143.492,79.215 C143.492,87.982 136.385,95.089 127.617,95.089 Z"/>
<path fill-rule="evenodd"  fill="rgb(70, 81, 252)"
 d="M119.951,144.921 L108.154,144.921 C108.149,144.925 108.144,144.929 108.139,144.933 L25.751,144.933 C16.984,144.933 9.876,152.040 9.876,160.807 C9.876,161.209 9.896,161.606 9.926,162.000 C4.137,159.808 0.020,154.216 0.020,147.659 L0.020,131.243 L0.174,131.243 C0.075,130.524 0.020,129.792 0.020,129.046 C0.020,120.279 7.127,113.172 15.894,113.172 L119.951,113.172 C128.718,113.172 135.825,120.279 135.825,129.046 C135.825,137.814 128.718,144.921 119.951,144.921 Z"/>
<path fill-rule="evenodd"  fill="rgb(4, 17, 77)"
 d="M714.752,130.300 L714.752,36.772 L737.274,36.772 L737.274,130.300 L714.752,130.300 ZM673.145,126.002 C665.693,130.244 657.441,132.363 648.388,132.363 C639.217,132.363 630.878,130.244 623.372,126.002 C615.864,121.763 609.903,115.974 605.492,108.637 C601.078,101.303 598.873,92.935 598.873,83.536 C598.873,74.139 601.078,65.771 605.492,58.435 C609.903,51.101 615.834,45.312 623.286,41.070 C630.736,36.831 639.104,34.709 648.388,34.709 C657.556,34.709 665.865,36.831 673.317,41.070 C680.766,45.312 686.698,51.071 691.112,58.349 C695.523,65.629 697.731,74.023 697.731,83.536 C697.731,92.935 695.496,101.303 691.026,108.637 C686.555,115.974 680.594,121.763 673.145,126.002 ZM670.824,69.008 C668.589,64.825 665.551,61.502 661.712,59.036 C657.871,56.573 653.430,55.340 648.388,55.340 C643.230,55.340 638.701,56.573 634.806,59.036 C630.908,61.502 627.843,64.825 625.607,69.008 C623.372,73.193 622.255,78.034 622.255,83.536 C622.255,88.925 623.372,93.766 625.607,98.064 C627.843,102.362 630.908,105.714 634.806,108.121 C638.701,110.528 643.230,111.732 648.388,111.732 C653.430,111.732 657.871,110.528 661.712,108.121 C665.551,105.714 668.589,102.362 670.824,98.064 C673.059,93.766 674.177,88.925 674.177,83.536 C674.177,78.034 673.059,73.193 670.824,69.008 ZM559.330,0.151 L581.852,0.151 L581.852,130.300 L559.330,130.300 L559.330,0.151 ZM519.099,125.916 C511.991,130.214 503.910,132.363 494.857,132.363 C488.093,132.363 481.877,131.015 476.203,128.323 C472.366,126.502 469.080,124.131 466.317,121.234 L466.317,164.685 L443.795,164.685 L443.795,36.772 L464.942,36.772 L464.942,47.835 C467.878,44.151 471.538,41.172 475.945,38.921 C481.447,36.114 487.808,34.709 495.029,34.709 C503.854,34.709 511.819,36.887 518.927,41.242 C526.032,45.599 531.676,51.445 535.862,58.778 C540.044,66.115 542.137,74.367 542.137,83.536 C542.137,92.592 540.074,100.844 535.948,108.293 C531.821,115.745 526.204,121.618 519.099,125.916 ZM515.402,69.008 C513.167,64.825 510.043,61.502 506.032,59.036 C502.019,56.573 497.436,55.340 492.278,55.340 C487.349,55.340 482.908,56.543 478.954,58.950 C474.1000,61.357 471.905,64.710 469.670,69.008 C467.435,73.306 466.317,78.150 466.317,83.536 C466.317,89.038 467.435,93.911 469.670,98.150 C471.905,102.391 474.1000,105.714 478.954,108.121 C482.908,110.528 487.349,111.732 492.278,111.732 C497.436,111.732 502.019,110.528 506.032,108.121 C510.043,105.714 513.167,102.391 515.402,98.150 C517.637,93.911 518.755,89.038 518.755,83.536 C518.755,78.034 517.637,73.193 515.402,69.008 ZM402.189,75.455 C402.189,71.329 401.442,67.778 399.954,64.796 C398.463,61.817 396.400,59.496 393.764,57.833 C391.126,56.173 387.919,55.340 384.136,55.340 C380.582,55.340 377.431,56.173 374.680,57.833 C371.930,59.496 369.807,61.817 368.319,64.796 C366.828,67.778 366.084,71.329 366.084,75.455 L366.084,130.300 L343.562,130.300 L343.562,75.455 C343.562,71.329 342.815,67.778 341.327,64.796 C339.836,61.817 337.743,59.496 335.051,57.833 C332.357,56.173 329.176,55.340 325.509,55.340 C321.955,55.340 318.804,56.173 316.053,57.833 C313.302,59.496 311.180,61.817 309.692,64.796 C308.201,67.778 307.457,71.329 307.457,75.455 L307.457,130.300 L284.935,130.300 L284.935,36.772 L306.082,36.772 L306.082,48.428 C307.984,44.784 310.617,41.870 313.990,39.695 C319.148,36.372 325.222,34.709 332.214,34.709 C339.892,34.709 346.656,36.715 352.502,40.726 C356.187,43.256 359.048,46.288 361.093,49.819 C363.595,45.874 366.689,42.696 370.382,40.296 C376.112,36.573 382.702,34.709 390.154,34.709 C396.800,34.709 402.731,36.200 407.948,39.179 C413.162,42.161 417.259,46.314 420.241,51.643 C423.220,56.973 424.711,63.136 424.711,70.126 L424.711,130.300 L402.189,130.300 L402.189,75.455 ZM266.710,89.897 L199.341,89.897 C199.645,93.096 200.407,96.049 201.636,98.751 C203.640,103.165 206.622,106.574 210.576,108.981 C214.531,111.388 219.087,112.591 224.244,112.591 C229.402,112.591 233.786,111.504 237.397,109.325 C241.007,107.149 243.844,104.226 245.907,100.557 L264.131,109.497 C262.297,113.967 259.430,117.921 255.535,121.360 C251.637,124.798 247.025,127.493 241.695,129.440 C236.365,131.388 230.490,132.363 224.073,132.363 C214.445,132.363 206.020,130.187 198.799,125.830 C191.578,121.475 185.961,115.573 181.950,108.121 C177.937,100.672 175.933,92.420 175.933,83.364 C175.933,73.967 177.967,65.629 182.036,58.349 C186.104,51.071 191.664,45.312 198.713,41.070 C205.762,36.831 213.641,34.709 222.353,34.709 C229.687,34.709 236.134,35.912 241.695,38.319 C247.253,40.726 251.981,44.052 255.879,48.291 C259.774,52.533 262.756,57.376 264.819,62.819 C266.882,68.264 267.914,74.139 267.914,80.441 C267.914,82.048 267.828,83.708 267.656,85.427 C267.484,87.146 267.167,88.637 266.710,89.897 ZM242.555,66.687 C241.007,62.561 238.485,59.294 234.990,56.887 C231.492,54.480 227.280,53.277 222.353,53.277 C217.652,53.277 213.469,54.453 209.803,56.801 C206.133,59.152 203.355,62.590 201.464,67.117 C200.744,68.842 200.196,70.706 199.817,72.704 L243.854,72.704 C243.685,70.581 243.261,68.571 242.555,66.687 Z"/>
<path fill-rule="evenodd"  fill="rgb(139, 72, 253)"
 d="M726.271,1.500 C732.899,1.500 738.271,6.873 738.271,13.500 C738.271,20.127 732.899,25.500 726.271,25.500 C719.644,25.500 714.271,20.127 714.271,13.500 C714.271,6.873 719.644,1.500 726.271,1.500 Z"/>
</svg>